<svg width="152" height="46" viewBox="0 0 152 46" xmlns="http://www.w3.org/2000/svg"><title>BBC logo</title><path d="M81.065 29.683c0 4.592-5.702 4.32-5.702 4.32H69.66v-8.3h5.703c5.87-.035 5.702 3.98 5.702 3.98zM69.663 13.047h4.344c4.512.24 4.342 3.607 4.342 3.607 0 4.184-4.99 4.25-4.99 4.25h-3.7v-7.857h.003zm10.35 9.49s3.902-1.664 3.87-6.088c0 0 .593-7.245-8.986-8.13h-10.63V38.7H76.45s10.18.03 10.18-8.575c0 0 .237-5.85-6.62-7.585l.003-.002zM52.507 2.37h44.746v42.265h-44.75V2.368l.004.003zM29.462 29.684c0 4.592-5.7 4.32-5.7 4.32H18.06v-8.3h5.703c5.87-.035 5.7 3.98 5.7 3.98zM18.06 13.047h4.344c4.514.24 4.345 3.607 4.345 3.607 0 4.184-4.99 4.25-4.99 4.25h-3.7v-7.857zm10.35 9.49s3.904-1.664 3.87-6.088c0 0 .593-7.245-8.986-8.13h-10.63V38.7h12.184s10.182.03 10.182-8.575c0 0 .237-5.85-6.62-7.585v-.002zM.904 2.37H45.65v42.265H.905V2.368v.003zm138.82 8.126v5.614s-5.462-3.366-11.505-3.436c0 0-11.266-.222-11.775 10.825 0 0-.407 10.16 11.64 10.74 0 0 5.056.612 11.91-3.777v5.818s-9.195 5.48-19.853 1.262c0 0-8.956-3.283-9.297-14.042 0 0-.374-11.06 11.572-14.74 0 0 3.19-1.222 8.926-.678 0 0 3.428.34 8.382 2.417v-.004zM104.11 44.632h44.744V2.368h-44.747v42.264h.002z" fill-rule="evenodd"/></svg>