<svg width="353" height="50" viewBox="0 0 537 54" xmlns="http://www.w3.org/2000/svg" class="{{ include.class }}"
><title>Burberry</title><g
        fill-rule="evenodd"><path d="M33.85 52.128H.326v-1.575H9.1V17.928H.326v-2.025H30.25c9.676 0 16.876 2.7 16.876 8.775 0 5.175-6.076 7.875-13.5 7.875 9 0 17.1 3.6 17.1 9.9 0 4.95-5.626 9.675-16.876 9.675zm-6.975-34.2h-7.2v13.95h9c5.175 0 9.225-.9 9.225-7.2 0-6.075-4.05-6.75-11.025-6.75zm1.575 15.75h-8.775v16.875h9c5.625 0 12.15-1.125 12.15-8.1 0-7.875-5.175-8.775-12.375-8.775zM229.825 52.128H196.3v-1.575h8.775V17.928H196.3v-2.025h29.925c9.675 0 16.875 2.7 16.875 8.775 0 5.175-6.075 7.875-13.725 7.875 9.225 0 17.325 3.6 17.325 9.9 0 4.95-5.625 9.675-16.875 9.675zm-7.2-34.2h-7.2v13.95h9.225c5.175 0 9.225-.9 9.225-7.2 0-6.075-4.05-6.75-11.25-6.75zm1.575 15.75h-8.775v16.875h9.225c5.625 0 11.475-1.125 11.475-8.1 0-7.875-4.725-8.775-11.925-8.775zM111.7 17.928v22.275c0 9.225-7.65 13.05-19.8 13.05-8.775 0-22.5-2.25-22.5-12.6V17.928h-8.774v-2.025h28.35v2.025H79.75v22.725c0 8.775 7.2 9.9 13.95 9.9 8.55 0 15.975-2.7 15.975-10.35V17.928h-9v-2.025h20.25v2.025H111.7M181.45 53.253c-5.85 0-13.05-2.7-13.05-10.35v-2.25c0-4.5-4.05-6.525-9.9-6.525h-10.35v16.425h8.325v1.575H128.8v-1.575h8.775V17.928H128.8v-2.025h30.825c10.8 0 17.1 3.825 17.1 9 0 4.95-5.625 8.55-13.5 8.55 11.25 0 15.975 4.725 15.975 9.9v4.05c0 2.25 1.125 3.825 4.05 3.825 1.8 0 3.15-.675 3.825-1.575l1.35 1.575c-1.575 1.35-3.6 2.025-6.975 2.025zm-25.875-35.325h-7.425v14.175h7.875c6.075 0 10.35-1.125 10.35-7.2 0-5.4-3.15-6.975-10.8-6.975zM444.475 53.253c-6.075 0-12.825-2.7-12.825-10.35v-2.25c0-4.5-4.275-6.525-10.35-6.525h-10.35v16.425h8.325v1.575h-27.45v-1.575h8.775V17.928h-8.775v-2.025h31.05c10.35 0 17.1 3.825 17.1 9 0 4.95-5.85 8.55-13.95 8.55 11.7 0 15.975 4.725 15.975 9.9v4.05c0 2.25 1.575 3.825 4.05 3.825 2.025 0 3.15-.675 4.5-1.575l.675 1.575c-1.575 1.35-3.6 2.025-6.75 2.025zM418.6 17.928h-7.65v14.175h7.875c6.075 0 10.8-1.125 10.8-7.2 0-5.4-3.6-6.975-11.025-6.975zM376.975 53.253c-5.85 0-13.05-2.7-13.05-10.35v-2.25c0-4.5-4.5-6.525-10.35-6.525H343.45v16.425H352v1.575h-27.675v-1.575h8.775V17.928h-8.775v-2.025h30.825c10.8 0 17.1 3.825 17.1 9 0 4.95-6.075 8.55-13.5 8.55 11.025 0 15.975 4.725 15.975 9.9v4.05c0 2.25 1.125 3.825 3.825 3.825 2.025 0 3.375-.675 4.05-1.575l.9 1.575c-1.575 1.35-3.375 2.025-6.525 2.025zM351.1 17.928h-7.65v14.175h8.1c5.85 0 10.35-1.125 10.35-7.2 0-5.4-3.6-6.975-10.8-6.975zM258.625 52.128v-1.575h9V17.928h-9v-2.025h48.15v11.475h-2.025c0-4.725-3.6-9.45-12.6-9.45h-14.4v14.625h5.625c6.75 0 8.775-3.6 8.775-6.75h2.025v15.525h-2.025c0-3.15-2.025-6.75-8.775-6.75h-5.625v15.975h14.625c11.7 0 15.975-5.175 15.975-10.8h2.025v12.375h-51.75M505.45 17.928l-16.2 19.125v13.5h9v1.575H469.9v-1.575h9.225v-13.95l-16.65-18.675H452.35v-2.025h30.375v2.025H473.5l15.3 16.2 14.4-16.2h-8.775v-2.025h19.125v2.025h-8.1M528.625.603c-4.725 0-8.775 3.6-8.775 8.55 0 4.725 4.05 8.325 8.775 8.325 4.725 0 8.325-3.6 8.325-8.325 0-4.95-3.825-8.55-8.325-8.55zm-.45 1.35h.45c3.6 0 6.75 3.15 6.75 7.2 0 3.825-3.15 6.75-6.75 6.75-4.05 0-6.75-2.925-6.75-6.75 0-4.05 2.7-6.975 6.3-7.2zm-2.7 2.25v9.675h1.125v-4.05h1.575l2.925 4.05h1.575l-2.925-4.5c1.8 0 2.475-1.125 2.475-2.25 0-2.025-1.125-2.925-3.15-2.925h-3.6zm1.125 4.05v-2.7h2.025c1.575 0 2.475.225 2.475 1.575 0 .675-.9 1.125-2.025 1.125H526.6z"/></g></svg>