<svg class="{{ include.class }}" width="51" height="51" viewBox="0 0 51 51" xmlns="http://www.w3.org/2000/svg"><title>close-navigation</title><g fill-rule="evenodd"><path d="M36.276 38.397c.585.586 1.535.586 2.12 0 .587-.586.587-1.536 0-2.12L14.725 12.602c-.585-.586-1.535-.586-2.12 0-.587.586-.587 1.536 0 2.12l23.672 23.674z"/><path d="M38.136 14.724c.586-.585.586-1.535 0-2.12-.586-.587-1.535-.587-2.12 0L12.34 36.275c-.586.585-.586 1.535 0 2.12.586.587 1.536.587 2.12 0l23.674-23.672z"/></g></svg>