<svg width="26" height="26" viewBox="0 0 26 26" xmlns="http://www.w3.org/2000/svg"><title>Artboard Copy</title><path d="M12.5 24C6.71 24 2 19.29 2 13.5S6.71 3 12.5 3 23 7.71 23 13.5 18.29 24 12.5 24zm8.855-9.063c-.307-.096-2.776-.833-5.586-.383 1.172 3.223 1.65 5.85 1.74 6.394 2.013-1.36 3.445-3.515 3.845-6.01zm-5.352 6.832c-.133-.787-.654-3.53-1.913-6.802l-.06.02c-5.058 1.763-6.874 5.27-7.035 5.6 1.52 1.187 3.432 1.894 5.505 1.894 1.242 0 2.426-.254 3.503-.713zM5.837 19.51c.203-.347 2.665-4.423 7.29-5.918.117-.038.235-.073.353-.107-.225-.51-.47-1.02-.727-1.522-4.48 1.34-8.825 1.285-9.217 1.276-.003.09-.005.182-.005.274 0 2.303.874 4.406 2.307 5.996zM3.72 11.677c.402.005 4.097.02 8.292-1.093-1.486-2.64-3.09-4.863-3.325-5.187-2.51 1.184-4.385 3.497-4.966 6.28zM10.4 4.794c.248.332 1.877 2.55 3.347 5.25 3.19-1.195 4.54-3.01 4.7-3.24C16.86 5.4 14.78 4.545 12.5 4.545c-.724 0-1.427.088-2.102.25zm9.044 3.048c-.19.256-1.692 2.183-5.008 3.536.21.428.41.862.595 1.3l.193.462c2.984-.375 5.95.227 6.244.29-.02-2.118-.776-4.062-2.025-5.588z" fill-rule="evenodd"/></svg>