<svg width="26" height="26" viewBox="0 0 26 26" xmlns="http://www.w3.org/2000/svg"><title>Artboard Copy 2</title><path d="M22.231 1H3.769C2.24 1 1 2.24 1 3.769v18.46C1 23.76 2.24 25 3.769 25h18.463C23.761 25 25 23.76 25 22.229V3.769C25 2.24 23.761 1 22.231 1zM13 8.385c2.549 0 4.616 2.065 4.616 4.615 0 2.549-2.067 4.616-4.616 4.616-2.549 0-4.615-2.068-4.615-4.616 0-2.55 2.066-4.615 4.615-4.615zm9 12.693c0 .509-.413.922-.924.922H4.924C4.413 22 4 21.587 4 21.078V11h1.897c-.088.315-.153.64-.2.971-.05.337-.081.679-.081 1.029 0 4.079 3.306 7.385 7.384 7.385s7.384-3.306 7.384-7.385c0-.35-.031-.692-.081-1.028-.047-.331-.112-.656-.2-.971H22v10.077zm0-13.98c0 .509-.413.923-.924.923h-2.174c-.511 0-.923-.414-.923-.923V4.923c0-.51.412-.923.923-.923h2.174c.511 0 .924.413.924.923v2.175z" fill-rule="evenodd"/></svg>