<svg viewBox="0 0 710 751" version="1.1" xmlns="http://www.w3.org/2000/svg" xmlns:xlink="http://www.w3.org/1999/xlink" class="{{ include.class }}">
  <title>ITV Craft logo</title>
  <g>
    <path d="M363.561099,266.012158 C307.081394,266.012158 264.681716,313.754863 264.681716,375.320478 C264.681716,436.886092 307.081394,484.628794 363.561099,484.628794 C386.860689,484.628794 428.819533,478.812508 428.819533,478.812508 C437.233773,477.730196 442.801051,470.096478 441.252056,461.749502 L432.798804,416.197971 C431.250857,407.856645 423.17256,401.981121 414.763553,403.025791 C414.763553,403.025791 381.847835,407.567569 363.561099,407.567569 C351.57386,407.567569 341.455263,396.173871 341.455263,375.320478 C341.455263,354.467083 351.573862,343.073382 363.561099,343.073382 L709.43487,343.073382 L709.43487,266.012158 L363.561099,266.012158 L363.561099,266.012158 Z"></path>
    <path d="M343.597455,133.931611 C223.233573,133.931611 131.830875,236.852488 131.830875,375.320481 C131.830875,513.788472 223.233572,616.709341 343.597455,616.709341 C379.391546,616.709341 456.242383,608.416502 456.242383,608.416502 C464.680936,607.546983 470.169613,600.104895 468.499161,591.781551 L459.383087,546.358989 C457.713766,538.041279 449.508834,531.981731 441.076289,532.798427 C441.076289,532.798427 374.698375,539.648116 343.597455,539.648116 C267.726038,539.648116 208.604422,473.076251 208.604422,375.320481 C208.604422,277.564708 267.72604,210.992835 343.597455,210.992835 L709.43487,210.992835 L709.43487,133.931611 L343.597455,133.931611 L343.597455,133.931611 Z"></path>
    <path d="M326.283133,0.36594118 C141.316755,0.365941107 0.36004433,159.085418 0.36004433,375.320484 C0.36004433,591.555548 141.316753,750.27501 326.283133,750.27501 C382.776211,750.27501 481.636699,737.323711 481.636699,737.323711 C490.047018,736.274503 495.583658,728.672812 494.000738,720.332251 L485.362349,674.815728 C483.780501,666.480812 475.683869,660.580673 467.262152,661.606817 C467.262152,661.606817 378.150014,673.213786 326.283133,673.213786 C185.809219,673.213786 77.1335914,550.843327 77.1335914,375.320484 C77.1335914,199.797638 185.809222,77.4271656 326.283133,77.4271657 C360.05693,77.4271657 702.484389,77.4210775 709.43595,77.4208811 L709.433789,0.35965669 C702.482299,0.35985308 360.056342,0.365941161 326.283133,0.36594118 L326.283133,0.36594118 Z"></path>
  </g>
</svg>
