<svg width="107" height="54" viewBox="0 0 107 54" xmlns="http://www.w3.org/2000/svg"
     class="{{ include.class }}"><title>Artboard</title><g fill-rule="evenodd"><path d="M14.788 8.722c1.372-5.412-4.16-9.91-9.246-8.44C.882.954-.8 6.25.348 10.335c2.03 6.9 14.36 5.967 14.44-1.613"/><path d="M98.497 18.98c-2.523 7.837-4.928 16-9.687 22.828-3.77-5.677-6.047-12.337-10.72-17.402-.433-9.045-13.652-5.904-14.736 1.016.652 2.688 2.193 5.073 3.582 7.44.017 3.285-.567 6.754-2.896 9.257-6.538 6.894-21.61 3.25-20.468-7.543.186-2.41.043-4.83.017-7.248 3.954 1.133 8.095.68 12.143.72.11-2.888.11-5.785.025-8.683-4.073-.1-8.155.176-12.21-.193-.17-4.334.752-8.894-.484-13.102-3.37-2.687-10.306-3.032-13.067.588-.28 10.792-.296 21.668.01 32.46-1.44 6.803-12.136 9.222-15.27 2.604-1.905-7.332 0-15.092-1.092-22.55-4.53.168-9.086-.227-13.592.285.026 6.718-.195 13.445.11 20.156.44 6.148 5.158 11.514 11.17 12.967 8.02 2.352 17.945 1.823 24.38-3.94 11.297 7.93 30.334 7.686 38.065-5.004 2.346 2.745 3.81 6.19 6.445 8.69 4.437 2.73 11.534 2.126 14.015-2.972 5.208-8.91 10.822-18.2 12.762-28.37-2.72-1.084-5.522-2.125-8.503-2.007"/></g></svg>