<svg width="57" height="56" viewBox="0 0 57 56" xmlns="http://www.w3.org/2000/svg" class="{{ include.class }}"><title>pin</title><g
        fill-rule="evenodd"><path d="M54.5 28.5c0-14.36-11.64-26-26-26s-26 11.64-26 26 11.64 26 26 26 26-11.64 26-26zm-49 0c0-12.703 10.297-23 23-23s23 10.297 23 23-10.297 23-23 23-23-10.297-23-23z"/><path d="M32.7 23.984c0 2.298-1.79 4.163-4 4.163s-4-1.865-4-4.163c0-2.3 1.79-4.162 4-4.162s4 1.863 4 4.162zM28.7 43S18.2 29.96 18.2 23.925C18.2 17.892 22.902 13 28.7 13c5.8 0 10.5 4.892 10.5 10.925C39.2 29.96 28.7 43 28.7 43z"/></g></svg>