<svg class="{{ include.class }}" width="44" height="44" viewBox="0 0 44 44" xmlns="http://www.w3.org/2000/svg"><title>Group 10</title><g fill-rule="evenodd"><path d="M43.5 22C43.5 10.126 33.874.5 22 .5S.5 10.126.5 22 10.126 43.5 22 43.5 43.5 33.874 43.5 22zm-40 0C3.5 11.783 11.783 3.5 22 3.5S40.5 11.783 40.5 22 32.217 40.5 22 40.5 3.5 32.217 3.5 22z"/><path d="M22 21.972c-1.237 0-2.263-1.07-2.263-2.417 0-1.348 1.025-2.416 2.263-2.416 1.237 0 2.263 1.067 2.263 2.415S23.237 21.972 22 21.972zm0-7.833c-2.922 0-5.263 2.436-5.263 5.415 0 2.978 2.34 5.417 5.263 5.417 2.92 0 5.263-2.44 5.263-5.417 0-2.98-2.34-5.416-5.263-5.416zm.852 18.018c-.257-.33-.544-.705-.854-1.12-.884-1.183-1.77-2.434-2.593-3.694-.605-.926-1.154-1.82-1.633-2.672-1.27-2.256-1.972-4.08-1.972-5.16C15.8 15.902 18.59 13 22 13s6.2 2.902 6.2 6.512c0 1.08-.703 2.904-1.972 5.16-.48.85-1.028 1.746-1.633 2.672-.824 1.26-1.71 2.51-2.593 3.694-.31.415-.597.79-.854 1.12-.153.197-.26.333-.316.4h2.336c-.055-.067-.163-.203-.316-.4zM22 35.892l1.168-1.45c.065-.082.183-.23.346-.44.27-.345.57-.737.89-1.167.92-1.23 1.84-2.532 2.7-3.85.64-.978 1.225-1.93 1.738-2.842 1.508-2.678 2.358-4.887 2.358-6.63C31.2 14.272 27.095 10 22 10c-5.094 0-9.2 4.272-9.2 9.512 0 1.744.85 3.953 2.358 6.63.513.914 1.097 1.865 1.737 2.844.86 1.317 1.78 2.618 2.7 3.85.322.43.622.82.89 1.167.164.21.282.357.347.438L22 35.893z"/></g></svg>