<svg width="62" height="62" viewBox="0 0 62 62" xmlns="http://www.w3.org/2000/svg" class="logo--small {{ include.class }}"><g fill-rule="evenodd"><path d="M31 62c17.12 0 31-13.88 31-31C62 13.88 48.12 0 31 0 13.88 0 0 13.88 0 31c0 17.12 13.88 31 31 31zm0-4.026C16.103 57.974 4.026 45.897 4.026 31S16.103 4.026 31 4.026 57.974 16.103 57.974 31 45.897 57.974 31 57.974z"/><path d="M12.08 38.388h4.128V24.292h-4.13v14.096zm14.6.282c4.412 0 7.863-3.242 7.863-7.33 0-4.116-3.45-7.33-7.863-7.33-4.384 0-7.863 3.214-7.863 7.33 0 4.088 3.48 7.33 7.863 7.33zm0-3.61c-2.093 0-3.734-1.634-3.734-3.72 0-2.086 1.64-3.75 3.734-3.75 2.064 0 3.733 1.664 3.733 3.75 0 2.086-1.67 3.72-3.733 3.72zm17.422 3.61c4.413 0 7.863-3.242 7.863-7.33 0-4.116-3.45-7.33-7.863-7.33-4.383 0-7.862 3.214-7.862 7.33 0 4.088 3.48 7.33 7.862 7.33zm0-3.61c-2.093 0-3.733-1.634-3.733-3.72 0-2.086 1.64-3.75 3.732-3.75 2.065 0 3.734 1.664 3.734 3.75 0 2.086-1.67 3.72-3.734 3.72z"/></g></svg>