<svg width="200" height="78" viewBox="0 0 200 78" xmlns="http://www.w3.org/2000/svg"><title>Artboard</title><g fill-rule="evenodd"><path d="M38.703 77.266c21.3322 0 38.6252-17.293 38.6252-38.625S60.0352.0158 38.7032.0158C17.371.0158.0778 17.3088.0778 38.641c0 21.332 17.293 38.625 38.625 38.625zm0-5.0653c-18.5345 0-33.5597-15.0252-33.5597-33.5597S20.1685 5.0813 38.703 5.0813c18.5346 0 33.5598 15.0252 33.5598 33.5597S57.2376 72.2007 38.703 72.2007zM91.488 48.0634c4.516 0 7.1014-2.62 7.1014-5.8604 0-5.8604-8.446-4.585-8.446-7.2048 0-.9997 1.2067-1.379 2.5166-1.2066 1.2066.1724 2.62.7585 3.4818 1.448l2.413-3.2405c-1.9993-1.3444-4.6882-1.8615-6.4463-1.8615-4.1713 0-6.929 2.413-6.929 5.5502 0 5.5846 8.5147 4.378 8.5147 7.1703 0 .9653-1.0342 1.448-2.413 1.3445-1.448-.1034-3.344-.8618-4.4816-1.827L84.49 45.926c1.827 1.448 4.8262 2.1374 6.998 2.1374zm20.27-17.926c-1.9994 0-3.723.793-4.9985 2.103V21.864h-4.9986v25.8547h4.9985v-9.997c0-1.7927 1.5513-3.206 3.5507-3.206 1.896 0 3.206 1.172 3.206 2.93v10.273h5.033V36.8253c0-4.0678-2.7233-6.6878-6.7912-6.6878zm23.683.3104v1.6202c-1.3445-1.2066-3.1026-1.9305-5.171-1.9305-4.895 0-8.6182 3.93-8.6182 8.963 0 5.033 3.723 8.963 8.6182 8.963 2.0684 0 3.8265-.724 5.171-1.9305v1.6202l5.033-.0345v-17.271h-5.033zm-4.2057 13.203c-2.551 0-4.5505-1.9993-4.5505-4.5503s1.9995-4.585 4.5505-4.585c2.5165 0 4.5504 2.034 4.5504 4.585s-2.034 4.5504-4.5504 4.5504zm24.3034-13.5133c-2.103 0-3.861.724-5.2054 1.9305v-1.5858h-4.9986V56.337l4.9986.0344V46.133c1.3444 1.2065 3.1025 1.9304 5.2054 1.9304 4.895 0 8.5837-3.93 8.5837-8.963 0-5.033-3.6886-8.963-8.5837-8.963zm-.9997 13.5134c-2.5166 0-4.5505-1.9995-4.5505-4.5505s2.034-4.585 4.5505-4.585c2.551 0 4.585 2.034 4.585 4.585s-2.034 4.5504-4.585 4.5504zm29.7156-4.585c0-5.4467-3.4473-8.963-8.6182-8.963-5.619 0-9.3077 3.8955-9.3077 8.9975 0 5.1364 3.4128 8.963 9.4456 8.963 3.4818 0 6.55-1.7237 7.9632-4.4815l-3.585-1.7582c-1.3446 1.7926-2.7924 2.3787-4.4127 2.3787-2.482 0-3.93-1.379-4.309-3.6542h12.755c.0344-.517.0688-.9997.0688-1.4823zm-8.6527-5.033c2.2062 0 3.5162 1.241 3.8954 3.4817h-8.0322c.4826-2.1028 1.8615-3.4817 4.1367-3.4817zm17.2364 14.0304c4.516 0 7.1014-2.62 7.1014-5.8604 0-5.8604-8.4458-4.585-8.4458-7.2048 0-.9997 1.2065-1.379 2.5165-1.2066 1.2065.1724 2.62.7585 3.4818 1.448l2.413-3.2405c-1.9994-1.3444-4.6883-1.8615-6.4464-1.8615-4.1713 0-6.929 2.413-6.929 5.5502 0 5.5846 8.5147 4.378 8.5147 7.1703 0 .9653-1.0342 1.448-2.413 1.3445-1.448-.1034-3.344-.8618-4.4816-1.827l-2.3096 3.5506c1.827 1.448 4.8262 2.1374 6.998 2.1374z"/><path d="M15.144 47.8397h5.1416v-17.551H15.144v17.551zm18.1798.351c5.4938 0 9.7902-4.0367 9.7902-9.1265 0-5.125-4.2964-9.1265-9.7902-9.1265-5.4586 0-9.7903 4.0016-9.7903 9.1265 0 5.0898 4.3317 9.1265 9.7903 9.1265zm0-4.493c-2.606 0-4.6486-2.036-4.6486-4.6335 0-2.5975 2.0425-4.6685 4.6486-4.6685 2.5708 0 4.6486 2.071 4.6486 4.6685 0 2.5976-2.0778 4.6335-4.6486 4.6335zm21.6935 4.493c5.4938 0 9.7902-4.0367 9.7902-9.1265 0-5.125-4.2964-9.1265-9.7902-9.1265-5.4586 0-9.7903 4.0016-9.7903 9.1265 0 5.0898 4.3317 9.1265 9.7903 9.1265zm0-4.493c-2.606 0-4.6486-2.036-4.6486-4.6335 0-2.5975 2.0425-4.6685 4.6486-4.6685 2.5708 0 4.6486 2.071 4.6486 4.6685 0 2.5976-2.078 4.6335-4.6487 4.6335z"/></g></svg>