<svg width="62px" height="62px" viewBox="0 0 62 62" version="1.1" xmlns="http://www.w3.org/2000/svg">
    <g id="Page-1" fill-rule="evenodd">
        <g id="Artboard" fill="#215CFF">
            <g id="Group-3">
                <path d="M31,62 C48.1208272,62 62,48.1208272 62,31 C62,13.8791728 48.1208272,0 31,0 C13.8791728,0 0,13.8791728 0,31 C0,48.1208272 13.8791728,62 31,62 L31,62 Z M31,57.974026 C16.1026568,57.974026 4.02597403,45.8973432 4.02597403,31 C4.02597403,16.1026568 16.1026568,4.02597403 31,4.02597403 C45.8973432,4.02597403 57.974026,16.1026568 57.974026,31 C57.974026,45.8973432 45.8973432,57.974026 31,57.974026 L31,57.974026 Z" id="Oval-30"></path>
                <path d="M12.0788796,38.3877957 L16.208301,38.3877957 L16.208301,24.2920485 L12.0788796,24.2920485 L12.0788796,38.3877957 Z M26.6797112,38.6697106 C31.0919697,38.6697106 34.542582,35.4276888 34.542582,31.3399221 C34.542582,27.2239639 31.0919697,24.0101335 26.6797112,24.0101335 C22.2957365,24.0101335 18.8168404,27.2239639 18.8168404,31.3399221 C18.8168404,35.4276888 22.2957365,38.6697106 26.6797112,38.6697106 L26.6797112,38.6697106 Z M26.6797112,35.0611993 C24.5867168,35.0611993 22.9462618,33.4260927 22.9462618,31.3399221 C22.9462618,29.2537515 24.5867168,27.5904533 26.6797112,27.5904533 C28.7444219,27.5904533 30.4131607,29.2537515 30.4131607,31.3399221 C30.4131607,33.4260927 28.7444219,35.0611993 26.6797112,35.0611993 L26.6797112,35.0611993 Z M44.1024754,38.6697106 C48.5147338,38.6697106 51.9653462,35.4276888 51.9653462,31.3399221 C51.9653462,27.2239639 48.5147338,24.0101335 44.1024754,24.0101335 C39.7185006,24.0101335 36.2396045,27.2239639 36.2396045,31.3399221 C36.2396045,35.4276888 39.7185006,38.6697106 44.1024754,38.6697106 L44.1024754,38.6697106 Z M44.1024754,35.0611993 C42.009481,35.0611993 40.3690259,33.4260927 40.3690259,31.3399221 C40.3690259,29.2537515 42.009481,27.5904533 44.1024754,27.5904533 C46.167186,27.5904533 47.8359248,29.2537515 47.8359248,31.3399221 C47.8359248,33.4260927 46.167186,35.0611993 44.1024754,35.0611993 L44.1024754,35.0611993 Z" id="ioo"></path>
            </g>
        </g>
    </g>
</svg>