<svg width="112" height="65" viewBox="0 0 112 65" xmlns="http://www.w3.org/2000/svg"><title>Artboard 2</title><g fill-rule="evenodd"><path d="M6.932 7.594h33.19V.644H5.895L.858.65v22.644l6.074 6.95V7.593zm98.136 49.812h-33.19v6.95h39.264v-22.65l-6.074-6.95v22.65z"/><path d="M20.004 17.408h-3.678v13.456h9.458v-3.38h-5.78V17.407zm13.534 3.253c1.872 0 3.18 1.43 3.18 3.477 0 2.045-1.31 3.475-3.18 3.475-1.873 0-3.18-1.43-3.18-3.475 0-2.048 1.31-3.476 3.18-3.476zm0 10.37c3.885 0 6.932-3.03 6.932-6.89 0-3.868-3.047-6.894-6.932-6.894-3.886 0-6.93 3.026-6.93 6.89 0 3.865 3.04 6.893 6.928 6.893h.002zm20.635-.024V17.36h-3.518l.004 6.123-8.167-6.31v13.645h3.515V24.72l8.165 6.287zM97.06 17.36h-3.518l.006 6.123-8.17-6.31v13.645h3.518V24.72l8.163 6.287V17.36zm-36.7 3.428h.542c2.808 0 3.395 1.82 3.395 3.35 0 1.526-.587 3.348-3.395 3.348h-.542v-6.698zm.668-3.38H56.68v13.456h4.348c4.145 0 7.04-2.765 7.04-6.727 0-3.96-2.895-6.728-7.04-6.728v-.002zm15.51 10.204c-1.872 0-3.18-1.43-3.18-3.475 0-2.048 1.31-3.476 3.18-3.476 1.875 0 3.18 1.43 3.18 3.475 0 2.048-1.307 3.477-3.178 3.477h-.003zm.002-10.365c-3.885 0-6.93 3.026-6.93 6.89 0 3.865 3.045 6.89 6.93 6.89 3.89 0 6.933-3.025 6.933-6.89 0-3.864-3.044-6.89-6.932-6.89zM20.004 36.1h-3.678v13.454h9.458v-3.378h-5.78V36.1zm7.2 0h3.677v13.454h-3.677V36.1zm11.652 6.247L35.71 36.1h-4.008l7.13 13.743L45.68 36.1h-3.745l-3.08 6.247zm7.67 7.207h9.712v-3.378h-6.033v-1.704h5.38v-3.326h-5.38v-1.67h6.033V36.1h-9.712v13.454z"/></g></svg>