<svg class="{{ include.class }}" width="44" height="44" viewBox="0 0 44 44" xmlns="http://www.w3.org/2000/svg"><title>Artboard</title><g fill-rule="evenodd"><path d="M43.5 22C43.5 10.126 33.874.5 22 .5S.5 10.126.5 22 10.126 43.5 22 43.5 43.5 33.874 43.5 22zm-40 0C3.5 11.783 11.783 3.5 22 3.5S40.5 11.783 40.5 22 32.217 40.5 22 40.5 3.5 32.217 3.5 22z"/><path d="M33 16.5L31.5 15v14l1.5-1.5H11l1.5 1.5V15L11 16.5h22zm-23.5-3v17h25v-17h-25z"/><path d="M21.05 25.16l.95.778.95-.777 11-9c.64-.524.736-1.47.21-2.11-.524-.64-1.47-.736-2.11-.21l-11 9h1.9l-11-9c-.64-.526-1.586-.43-2.11.21-.526.64-.43 1.586.21 2.11l11 9z"/><path d="M25.9 20.8c-.663-.497-1.603-.363-2.1.3-.497.663-.363 1.603.3 2.1l4 3c.663.497 1.603.363 2.1-.3.497-.663.363-1.603-.3-2.1l-4-3zM19.9 23.2c.663-.497.797-1.437.3-2.1-.497-.663-1.437-.797-2.1-.3l-4 3c-.663.497-.797 1.437-.3 2.1.497.663 1.437.797 2.1.3l4-3z"/></g></svg>