<svg width="57" height="56" viewBox="0 0 57 56" xmlns="http://www.w3.org/2000/svg" class="{{ include.class }}"><title>mail</title><g
        fill-rule="evenodd"><path d="M54.5 28.5c0-14.36-11.64-26-26-26s-26 11.64-26 26 11.64 26 26 26 26-11.64 26-26zm-49 0c0-12.703 10.297-23 23-23s23 10.297 23 23-10.297 23-23 23-23-10.297-23-23z"/><path d="M14 23c0-1.105.688-1.426 1.53-.725l2.94 2.45c.845.704.842 1.85 0 2.55l-2.94 2.45c-.845.704-1.53.388-1.53-.725v-6zM44 23c0-1.105-.688-1.426-1.53-.725l-2.94 2.45c-.845.704-.842 1.85 0 2.55l2.94 2.45c.845.704 1.53.388 1.53-.725v-6zM42.008 17.5c1.1 0 1.31.592.485 1.306L30.507 29.194c-.832.72-2.19.714-3.014 0L15.507 18.806c-.832-.72-.61-1.306.485-1.306h26.016z"/><path d="M15.992 39.5c-1.1 0-1.992-.894-1.992-2.005V35.5c0-.552.344-1.3.753-1.66l5.742-5.023c.83-.728 2.19-.73 3.024-.015l3.96 3.396c.84.72 2.204.716 3.04 0l3.96-3.396c.84-.72 2.188-.717 3.025.015l5.742 5.024c.416.365.753 1.104.753 1.66v1.995c0 1.107-.898 2.005-1.992 2.005H15.992z"/></g></svg>