<svg width="163" height="70" viewBox="0 0 163 70" xmlns="http://www.w3.org/2000/svg"><title>Group 6</title><g fill="none" fill-rule="evenodd"><path d="M48 34c-7.732 0-14 6.268-14 14h8.75c0-2.9 2.35-5.25 5.25-5.25V34zM48 17c-17.12 0-31 13.88-31 31h8.61c0-12.365 10.025-22.39 22.39-22.39V17z" fill="#F54946"/><path d="M48 0C21.49 0 0 21.49 0 48h8.57C8.57 26.224 26.225 8.57 48 8.57V0z" fill="#F54946"/><path d="M92.927 39.56c-.597-.06-1.195-.12-1.852-.12-2.51 0-6.573.72-8.366 4.63v-4.39H75v29.598h7.948V55.742c0-6.377 3.526-8.362 7.59-8.362.716 0 1.493.06 2.39.24v-8.06zm11.794 29.718v-3.61c1.555 2.527 4.662 4.332 8.726 4.332 8.366 0 13.864-6.678 13.864-15.642 0-8.783-4.96-15.46-13.565-15.46-4.363 0-7.59 1.924-8.904 4.03V25.722h-7.828v43.556h7.71zm14.642-14.86c0 5.415-3.227 8.423-7.29 8.423-4.004 0-7.35-3.067-7.35-8.422 0-5.414 3.346-8.362 7.35-8.362 4.063 0 7.29 2.948 7.29 8.362zM140 69.278v-29.6h-7.948v29.6H140zm-8.904-39.285c0 2.647 2.21 4.873 4.9 4.873 2.75 0 4.9-2.226 4.9-4.873 0-2.767-2.15-4.993-4.9-4.993-2.69 0-4.9 2.226-4.9 4.993zm25.657.843h-7.17v4.15c0 2.648-1.435 4.693-4.542 4.693h-1.493v7.098h5.318v13.777c0 5.715 3.586 9.144 9.323 9.144 2.33 0 3.764-.422 4.48-.723V62.36c-.417.12-1.493.24-2.45.24-2.27 0-3.465-.842-3.465-3.43V46.78h5.916v-7.1h-5.917v-8.842zM26 48c0 12.15 9.85 22 22 22s22-9.85 22-22-9.85-22-22-22v8.462c7.477 0 13.538 6.06 13.538 13.538 0 7.477-6.06 13.538-13.538 13.538-7.477 0-13.538-6.06-13.538-13.538H26z" fill="#FFF"/></g></svg>