<svg class="{{ include.class }}" width="43" height="44" viewBox="0 0 43 44" xmlns="http://www.w3.org/2000/svg"><title>Group 9</title><g fill-rule="evenodd"><path d="M43 22C43 10.126 33.374.5 21.5.5S0 10.126 0 22s9.626 21.5 21.5 21.5S43 33.874 43 22zM3 22C3 11.783 11.283 3.5 21.5 3.5S40 11.783 40 22s-8.283 18.5-18.5 18.5S3 32.217 3 22z"/><path d="M26.372 26.98c.12-.12.208-.206.29-.28.536-.497.68-.49 2.067.624.394.317.625.584.726.787.044.09.05.124.04.166-.037.195-.277.516-.83 1.048.032-.03-.482.46-.623.6-.02.02-.215.08-.602.076-.58-.006-1.346-.17-2.214-.498-2.077-.784-4.43-2.36-6.648-4.58-2.22-2.22-3.796-4.572-4.58-6.648-.327-.87-.492-1.634-.498-2.215-.004-.388.056-.584.074-.602.142-.143.635-.66.6-.624.533-.553.855-.793 1.05-.83.04-.01.077-.004.165.04.202.1.47.332.786.728 1.115 1.386 1.12 1.53.624 2.068-.074.08-.16.168-.28.287l-.356.352c-1.09 1.09-.797 2.448.183 3.955.592.91 1.484 1.935 2.633 3.084 1.148 1.148 2.175 2.04 3.085 2.633 1.508.98 2.865 1.274 3.956.183l.352-.355zm-1.962-1.983c-.133-.03-.385-.148-.71-.36-.698-.453-1.586-1.226-2.6-2.24-1.012-1.012-1.784-1.9-2.238-2.597-.21-.325-.33-.576-.36-.71.02.09-.026.318-.217.51l.347-.342c.148-.148.26-.263.37-.38 1.578-1.707 1.505-3.508-.488-5.986-1.17-1.456-2.474-2.105-3.865-1.833-.994.192-1.692.713-2.635 1.692.01-.012-.45.473-.562.585-2.423 2.42-.085 8.62 5.003 13.708 5.087 5.087 11.287 7.426 13.708 5 .11-.11.592-.568.585-.56.977-.943 1.498-1.642 1.692-2.635.27-1.39-.38-2.695-1.834-3.865-2.477-1.99-4.277-2.064-5.983-.49-.118.11-.234.223-.38.372l-.346.348c.19-.19.418-.238.51-.218z"/></g></svg>