<svg width="57" height="56" viewBox="0 0 57 56" xmlns="http://www.w3.org/2000/svg" class="{{ include.class }}"><title>phone</title><g fill-rule="evenodd"><path d="M54.5 28.5c0-14.36-11.64-26-26-26s-26 11.64-26 26 11.64 26 26 26 26-11.64 26-26zm-49 0c0-12.703 10.297-23 23-23s23 10.297 23 23-10.297 23-23 23-23-10.297-23-23z"/><path d="M33.052 34.126c1.62-1.62 2.62-3.034 6.196-.16 3.574 2.872.827 4.788-.744 6.358-1.812 1.814-8.568.095-15.245-6.582-6.68-6.68-8.397-13.435-6.584-15.246 1.572-1.574 3.485-4.316 6.357-.744 2.874 3.574 1.463 4.575-.16 6.195-1.13 1.134 1.232 3.998 3.707 6.472 2.474 2.473 5.34 4.84 6.472 3.706z"/></g></svg>