<svg width="26" height="26" viewBox="0 0 26 26" xmlns="http://www.w3.org/2000/svg" class="{{ include.class }}"><title>Twitter</title><path d="M22.937 7.005c1.102-.593 1.948-1.534 2.345-2.652-1.03.55-2.172.947-3.388 1.16C20.922 4.584 19.534 4 18 4c-2.944 0-5.332 2.15-5.332 4.797 0 .376.045.74.137 1.092C8.372 9.687 4.443 7.78 1.81 4.875c-.46.712-.722 1.536-.722 2.415 0 1.662.942 3.132 2.373 3.992-.873-.024-1.696-.24-2.416-.6v.06c0 2.324 1.838 4.263 4.28 4.703-.448.112-.92.17-1.406.17-.344 0-.68-.03-1.003-.086.678 1.903 2.648 3.29 4.982 3.33-1.825 1.285-4.126 2.05-6.625 2.05-.43 0-.855-.02-1.272-.065C2.36 22.205 5.165 23 8.177 23c9.812 0 15.176-7.307 15.176-13.647 0-.208-.004-.416-.014-.62 1.042-.677 1.947-1.52 2.66-2.483-.956.38-1.985.64-3.063.755z" fill-rule="evenodd"/></svg>