<svg width="106" height="45" viewBox="0 0 106 45" xmlns="http://www.w3.org/2000/svg" class="{{ include.class }}"><title>Yale</title><path d="M35.935 9.41L25.24 27.2v11.97c1.232 2.88 4.343 3.263 7.325 3.39v1.665H11.63v-1.664c2.98-.128 6.61-.576 7.583-2.496V27.714L8.323 9.537C6.446 6.464 4.63 5.44 1 5.185V3.52h18.213v1.665c-3.435.19-4.537.832-5.51 1.6l10.112 17.28L33.732 6.85c-1.037-.77-2.398-1.474-5.834-1.665V3.52h15.556v1.665c-3.5.128-5.704 1.28-7.52 4.224zm21.26 35.393c-3.5 0-5.186-2.368-5.316-4.032-2.205 2.305-5.056 4.033-7.778 4.033-3.5 0-6.482-2.112-6.482-5.76 0-1.792.454-3.65 1.36-5.12l12.9-4.61V24.58c0-2.88-1.362-5.632-4.278-5.632-1.75 0-3.436 2.11-3.565 5.376l-5.834.96v-.64c1.945-5.76 8.362-8 11.472-8 5.9 0 8.037 3.07 7.973 7.808l-.195 13.44c-.064 2.625 1.36 3.265 2.658 3.265 1.038 0 2.075-.64 3.306-1.856v1.855c-1.425 1.664-3.953 3.648-6.222 3.648zM44.23 34.37c-.258 1.024-.452 1.92-.452 3.33 0 1.92 1.102 3.84 3.24 3.84 1.945 0 3.047-.64 4.797-1.985l.064-8.64c-1.686.767-5.834 2.56-7.65 3.456zM64 44.228v-1.472c2.916-.192 3.76-.832 4.278-1.92V7.68c0-2.176-.325-3.072-4.797-3.456v-1.28L75.344 0l.388 1.09-1.878 2.303v37.44c.648 1.282 1.88 1.73 4.537 1.922v1.472H64zm29.944.512c-6.805 0-12.056-5.313-12.056-12.738 0-9.088 5.64-15.297 13.612-15.297 6.416 0 9.98 3.585 9.98 9.28v1.153l-17.5-.128c-.128.704-.194 1.857-.194 3.264 0 6.53 4.15 10.817 9.66 10.817 3.304 0 4.99-1.15 7.58-3.327l.974 1.47c-3.695 3.33-6.74 5.506-12.056 5.506zm.584-26.05c-3.24 0-5.51 2.56-6.287 6.59l11.41-.126c0-3.392-2.14-6.464-5.122-6.464z" fill-rule="evenodd"/></svg>