<svg version="1.1" xmlns="http://www.w3.org/2000/svg" xmlns:xlink="http://www.w3.org/1999/xlink" x="0px" y="0px"
	 viewBox="0 0 512 512" style="enable-background:new 0 0 512 512;" xml:space="preserve">
<title>BBC</title>
<g id="BBC">
	<path d="M274.624,273.732c0,13.172-16.356,12.392-16.356,12.392h-16.359v-23.809h16.359
		C275.106,262.215,274.624,273.732,274.624,273.732z M241.917,226.011h12.461c12.943,0.688,12.455,10.347,12.455,10.347
		c0,12.002-14.314,12.191-14.314,12.191h-10.614v-22.538h0.009H241.917z M271.606,253.233c0,0,11.193-4.773,11.101-17.464
		c0,0,1.701-20.783-25.777-23.321h-30.493v87.149h34.947c0,0,29.202,0.086,29.202-24.598c0,0,0.68-16.781-18.99-21.758l0.009-0.006
		V253.233z M192.704,195.383H321.06v121.239H192.692V195.378l0.011,0.009V195.383z M126.598,273.735
		c0,13.172-16.351,12.392-16.351,12.392H93.891v-23.809h16.359c16.838-0.1,16.351,11.417,16.351,11.417H126.598z M93.891,226.011
		h12.461c12.949,0.688,12.464,10.347,12.464,10.347c0,12.002-14.314,12.191-14.314,12.191H93.888v-22.538H93.891z M123.58,253.233
		c0,0,11.199-4.773,11.101-17.464c0,0,1.701-20.783-25.777-23.321H78.412v87.149h34.95c0,0,29.208,0.086,29.208-24.598
		c0,0,0.68-16.781-18.99-21.758v-0.006V253.233z M44.678,195.383h128.356v121.239H44.681V195.378v0.009L44.678,195.383z
		 M442.89,218.693v16.104c0,0-15.668-9.656-33.003-9.856c0,0-32.317-0.637-33.777,31.052c0,0-1.168,29.144,33.39,30.808
		c0,0,14.503,1.756,34.164-10.835v16.689c0,0-26.376,15.72-56.949,3.62c0,0-25.691-9.417-26.669-40.28
		c0,0-1.073-31.726,33.195-42.282c0,0,9.151-3.505,25.605-1.945c0,0,9.833,0.975,24.044,6.933v-0.011L442.89,218.693z
		 M340.729,316.614h128.35V195.378H340.721v121.236h0.006H340.729z"/>
</g>
</svg>
