<svg version="1.1" xmlns="http://www.w3.org/2000/svg" xmlns:xlink="http://www.w3.org/1999/xlink" x="0px" y="0px"
	 viewBox="0 0 512 512" style="enable-background:new 0 0 512 512;" xml:space="preserve">
<title>ITV Craft</title>
<g id="ITV_Craft">
	<path d="M220.754,256.852c0,24.685,17,43.839,39.645,43.839c9.342,0,26.165-2.326,26.165-2.326
		c3.374-0.434,5.606-3.492,4.985-6.838l-3.389-18.262c-0.621-3.344-3.86-5.699-7.231-5.281c0,0-13.197,1.821-20.529,1.821
		c-4.806,0-8.863-4.542-8.863-12.903S255.593,244,260.4,244H399v-31H260.4C237.754,213,220.754,232.167,220.754,256.852z
		 M167.488,256.83c0,55.518,36.648,96.807,84.907,96.807c14.352,0,45.165-3.313,45.165-3.313c3.383-0.349,5.584-3.327,4.914-6.664
		l-3.655-18.209c-0.669-3.335-3.959-5.763-7.34-5.436c0,0-26.614,2.747-39.084,2.747c-30.42,0-54.125-26.686-54.125-65.881
		S221.975,191,252.395,191H399v-31H252.395C204.136,160,167.488,201.312,167.488,256.83z M309.235,376.958
		c-0.634-3.342-3.881-5.707-7.257-5.296c0,0-35.729,4.654-56.525,4.654c-56.322,0-99.896-49.064-99.896-119.439
		s43.535-119.439,99.857-119.439c13.541,0,150.837-0.002,153.585-0.003v-30.897c-2.749,0-140.044,0.003-153.585,0.003
		c-74.162,0-130.659,63.638-130.659,150.337s56.526,150.337,130.687,150.337c22.651,0,62.293-5.193,62.293-5.193
		c3.372-0.421,5.594-3.469,4.96-6.813L309.235,376.958z"/>
</g>
</svg>
