<svg version="1.1" xmlns="http://www.w3.org/2000/svg" xmlns:xlink="http://www.w3.org/1999/xlink" x="0px" y="0px"
	 viewBox="0 0 512 512" style="enable-background:new 0 0 512 512;" xml:space="preserve">
<title>ITV</title>
<g id="ITV">
	<path d="M132.52,186.878c4.549-17.945-13.794-32.86-30.658-27.986c-15.452,2.228-21.029,19.789-17.222,33.334
		C91.37,215.106,132.255,212.012,132.52,186.878z M410.082,220.882l0.003,0.01c-8.366,25.986-16.34,53.053-32.121,75.694
		c-12.501-18.824-20.051-40.908-35.546-57.702c-1.436-29.992-45.268-19.577-48.862,3.369c2.162,8.913,7.272,16.821,11.877,24.67
		c0.056,10.893-1.88,22.395-9.603,30.695c-21.679,22.859-71.655,10.776-67.869-25.011c0.617-7.991,0.143-16.016,0.056-24.033
		c13.111,3.757,26.842,2.255,40.264,2.387c0.365-9.576,0.365-19.182,0.083-28.791c-13.505-0.332-27.041,0.584-40.486-0.64
		c-0.564-14.371,2.494-29.491-1.605-43.444c-11.174-8.91-34.173-10.054-43.328,1.95c-0.928,35.785-0.982,71.848,0.033,107.632
		c-4.775,22.558-40.241,30.579-50.633,8.634c-6.317-24.312,0-50.043-3.621-74.772c-15.021,0.557-30.128-0.753-45.069,0.945
		c0.086,22.276-0.647,44.581,0.365,66.834c1.459,20.386,17.103,38.179,37.038,42.996c26.593,7.799,59.503,6.045,80.84-13.064
		c37.459,26.295,100.583,25.486,126.217-16.592c7.779,9.102,12.633,20.525,21.371,28.815c14.712,9.052,38.245,7.049,46.472-9.855
		c17.269-29.544,35.884-60.348,42.317-94.07C429.258,223.942,419.967,220.49,410.082,220.882z"/>
</g>
</svg>
