<svg version="1.1" xmlns="http://www.w3.org/2000/svg" xmlns:xlink="http://www.w3.org/1999/xlink" x="0px" y="0px"
	 viewBox="0 0 512 512" style="enable-background:new 0 0 512 512;" xml:space="preserve">
<title>London Live</title>
<g id="London_Live">
	<path d="M80.81,167.069h119.176v-24.956h-122.9L59,142.135v81.308l21.81,24.956v-81.334V167.069z M433.19,345.931H314.014v24.956
		H455v-81.33l-21.81-24.956C433.19,264.601,433.19,345.931,433.19,345.931z"/>
	<path d="M127.748,202.309h-13.207v48.317h33.961v-12.137h-20.754v-36.184V202.309z M176.345,213.989
		c6.722,0,11.419,5.135,11.419,12.485c0,7.343-4.704,12.478-11.419,12.478c-6.725,0-11.419-5.135-11.419-12.478
		c0-7.354,4.704-12.481,11.419-12.481V213.989z M176.345,251.225c13.95,0,24.891-10.88,24.891-24.74
		c0-13.889-10.941-24.754-24.891-24.754c-13.954,0-24.884,10.866-24.884,24.74c0,13.878,10.916,24.751,24.877,24.751h0.007V251.225z
		 M250.44,251.139v-49.003h-12.632l0.014,21.986l-29.325-22.658v48.995h12.621v-21.896l29.318,22.575H250.44z M404.435,202.136
		h-12.632l0.022,21.986l-29.336-22.658v48.995h12.632v-21.896l29.311,22.575v-49.003H404.435z M272.656,214.445h1.946
		c10.083,0,12.191,6.535,12.191,12.029c0,5.479-2.108,12.022-12.191,12.022h-1.946V214.445z M275.054,202.309h-15.612v48.317h15.612
		c14.884,0,25.279-9.928,25.279-24.155c0-14.219-10.395-24.158-25.279-24.158v-0.007V202.309z M330.746,238.949
		c-6.722,0-11.419-5.135-11.419-12.478c0-7.354,4.704-12.481,11.419-12.481c6.733,0,11.419,5.135,11.419,12.478
		c0,7.354-4.693,12.485-11.411,12.485h-0.011L330.746,238.949z M330.754,201.731c-13.95,0-24.884,10.866-24.884,24.74
		c0,13.878,10.934,24.74,24.884,24.74c13.968,0,24.895-10.862,24.895-24.74c0-13.875-10.93-24.74-24.891-24.74H330.754z
		 M127.748,269.427h-13.207v48.31h33.961v-12.129h-20.754V269.427z M153.601,269.427h13.203v48.31h-13.203V269.427z
		 M195.441,291.858l-11.296-22.431h-14.392l25.602,49.347l24.589-49.347h-13.447l-11.059,22.431H195.441z M222.981,317.736h34.873
		v-12.129h-21.663v-6.119h19.318v-11.943h-19.318v-5.997h21.663v-12.122h-34.873V317.736z"/>
</g>
</svg>
