<svg version="1.1" xmlns="http://www.w3.org/2000/svg" xmlns:xlink="http://www.w3.org/1999/xlink" x="0px" y="0px"
	 viewBox="0 0 512 512" style="enable-background:new 0 0 512 512;" xml:space="preserve">
<title>Medium</title>
<g id="Medium">
	<path d="M204.237,173.16v207.019c0,2.937-0.742,5.454-2.194,7.487c-1.452,2.033-3.614,3.098-6.454,3.098
		c-2.001,0-3.937-0.484-5.809-1.42l-82.098-41.113c-2.485-1.162-4.55-3.163-6.261-5.906c-1.71-2.743-2.549-5.486-2.549-8.197
		v-201.21c0-2.356,0.581-4.357,1.775-6.002c1.162-1.646,2.872-2.485,5.131-2.485c1.646,0,4.228,0.871,7.777,2.646l90.198,45.18
		C204.043,172.643,204.237,172.934,204.237,173.16L204.237,173.16z M215.532,191.006l94.232,152.836l-94.232-46.954V191.006z
		 M415.129,194.168v186.011c0,2.937-0.839,5.325-2.485,7.132c-1.646,1.839-3.873,2.743-6.712,2.743s-5.583-0.775-8.294-2.291
		l-77.806-38.822L415.129,194.168z M414.612,172.998c0,0.355-15.103,25.042-45.276,74.03c-30.174,49.02-47.858,77.677-53.021,86.035
		L247.48,221.179l57.184-93.005c2.001-3.292,5.067-4.937,9.165-4.937c1.646,0,3.163,0.355,4.583,1.065l95.49,47.664
		C414.354,172.159,414.612,172.514,414.612,172.998L414.612,172.998z"/>
</g>
</svg>
