<svg version="1.1" xmlns="http://www.w3.org/2000/svg" xmlns:xlink="http://www.w3.org/1999/xlink" x="0px" y="0px"
	 viewBox="0 0 512 512" style="enable-background:new 0 0 512 512;" xml:space="preserve">
<title>MTV</title>
<g id="MTV">
	<path style="fill-rule:evenodd;clip-rule:evenodd;" d="M104.338,387.547V124.453H233.86l23.42,26.018l22.549-26.018h112.18
		l20.814,23.451v26.341l9.829-9.637c4.629-4.176,8.966-6.106,12.433-6.106c9.542,0,15.901,8.997,15.901,25.059
		c-1.448,11.886-13.586,18.312-19.661,26.982c-4.334,6.107-14.458,18.956-18.792,25.058v131.387l-19.658,20.56H279.829v-91.554
		l-23.704,23.774l-21.393-17.026v62.961l-20.82,21.846H104.338L104.338,387.547z M213.912,286.678v90.587l13.296-14.455v-65.85
		L213.912,286.678L213.912,286.678z M392.876,269.975v109.22l13.299-15.098V247.483L392.876,269.975L392.876,269.975z
		 M392.876,135.054v68.744l13.586-21.524v-32.125L392.876,135.054L392.876,135.054z M327.245,229.498l-2.312,4.821
		c-1.451,2.567-2.022,5.457-2.022,8.673c0,17.664,19.368,38.224,22.26,55.251c2.312,21.202,7.52,31.802,15.327,31.802
		c0.577,0,1.73-0.319,3.175-0.64c6.651,0,6.941-10.606,7.807-19.92c1.159-8.029,6.361-15.739,7.228-20.557
		c10.411-22.487,10.988-24.095,23.711-44.652c4.337-9.956,11.561-18.312,17.344-27.626c8.676-15.099,25.446-22.488,25.446-42.404
		c0-4.498-4.047-10.605-10.121-10.605c-20.527,4.499-41.633,51.082-51.752,69.393c-2.022,3.853-6.361,20.235-8.386,24.732
		c-6.648,7.066-6.066,20.562-17.63,20.562c-3.76-4.177-11.57-49.152-15.037-50.115c-2.312-1.93-4.916-3.213-7.804-3.213
		C331.584,224.999,329.267,226.604,327.245,229.498L327.245,229.498z M266.531,229.498c-5.494,6.743-14.168,12.21-21.393,17.667
		c-2.89,2.894-4.049,6.748-4.049,11.246c0,3.212,0.869,5.135,3.181,6.421c0.577,0.323,2.023,0.646,3.472,0.646
		c3.757,0,8.092-2.568,13.008-8.353c11.274-12.849,19.371-24.091,32.96-26.344c0,2.571,4.044,18.956,4.044,21.524
		c0,9.638,0.872,27.308,0.872,35.66c0,5.458-0.579,13.491-2.025,24.414c-0.869,5.139-1.159,8.675-1.159,10.279
		c0,3.854,0.869,8.992,2.894,16.062c1.156,3.858,0,15.418,5.779,15.418c1.159,0.967,2.314,1.29,3.178,1.29
		c6.074,0,9.542-11.25,9.542-26.022c-1.732-8.029-2.601-15.745-2.601-23.455v-12.204c0.869-13.81,1.446-22.484,1.446-26.66
		c0-3.217-0.287-5.462-0.577-6.429c-0.287-4.176-4.047-20.238-4.047-24.415c0-4.175,1.153-8.352,3.47-12.528
		c6.066-13.491,20.237-23.132,43.079-28.589c4.331-2.246,6.356-5.461,6.356-8.992c0-4.176-3.757-6.425-11.272-6.425
		c-14.75,0-26.891,17.344-41.344,18.307c-12.146,0.968-16.486-1.281-24.869,17.993C285.901,217.607,267.98,227.566,266.531,229.498
		L266.531,229.498z"/>
</g>
</svg>
