<svg version="1.1" xmlns="http://www.w3.org/2000/svg" xmlns:xlink="http://www.w3.org/1999/xlink" x="0px" y="0px"
	 viewBox="0 0 512 512" style="enable-background:new 0 0 512 512;" xml:space="preserve">
<title>TalkTalk</title>
<g id="TalkTalk">
	<path d="M185.044,201.788c-2.546,0-4.59,0.799-6.037,2.502c-1.047,1.19-2.328,3.053-2.328,7.243
		c0,4.097,0.072,60.139,0.086,71.573c0,3.235,0.785,5.67,2.328,7.415c1.501,1.612,3.48,2.502,5.951,2.502
		c2.526,0,4.532-0.858,6.122-2.416c1.523-1.666,2.328-3.861,2.328-14.659V211.79c0-3.342-0.748-5.822-2.242-7.501
		C189.69,202.609,187.613,201.788,185.044,201.788L185.044,201.788z M214.449,201.788c-3.498,0.39-7.33,2.534-7.33,10.866v70.452
		c0,3.312,0.759,5.79,2.242,7.501c1.48,1.558,3.509,2.416,6.037,2.416c2.238,0,4.217-0.828,5.95-2.416
		c1.705-1.704,2.347-4.09,2.5-5.692c0.118-1.207,0.345-5.846,0.345-8.105c0-13.93,8.818-10.161,11.123-7.243
		c1.777,2.277,4.603,5.252,5.864,7.158c0,0,10.246,13.745,11.383,14.832c1.115,0.907,2.738,1.466,4.829,1.466
		c2.402,0,4.309-0.802,5.777-2.157c1.466-1.526,2.242-3.588,2.242-6.208c0-0.952-0.292-1.882-0.862-2.932l-17.247-23.111
		c-2.648-3.762-1.601-7.336,1.294-10.519c1.604-1.884,8.156-8.841,9.486-10.435c2.86-3.391,2.354-7.124-0.259-9.743
		c-2.73-2.628-7.518-2.716-10.693,0.431l-12.676,12.761c-3.031,3.025-10.521,3.404-10.521-3.276v-25.784
		c0-8.36-4.02-10.262-8.019-10.262C215.44,201.788,214.948,201.732,214.449,201.788L214.449,201.788z M399.848,201.788
		c-2.575,0-4.534,0.795-6.034,2.502c-1.053,1.186-2.328,3.053-2.328,7.243v62.518c0,3.97-0.013,7.123,0,9.055
		c0,3.235,0.763,5.67,2.328,7.415c1.556,1.612,3.558,2.502,6.034,2.502c2.517,0,4.611-0.858,6.21-2.416
		c1.599-1.668,2.414-3.865,2.414-14.659v-1.897V211.79c0-3.342-0.845-5.822-2.414-7.501
		C404.497,202.604,402.401,201.788,399.848,201.788z M429.6,201.788c-3.552,0.39-7.332,2.534-7.332,10.866v61.397v9.055
		c0,3.312,0.755,5.79,2.242,7.501c1.483,1.558,3.492,2.416,6.122,2.416c2.223,0,4.062-0.828,5.777-2.416
		c1.704-1.704,2.347-4.09,2.502-5.692c0.112-1.207,0.257-5.846,0.257-8.105c0-1.008,0.081-1.916,0.174-2.759
		c1.121-10.609,8.997-7.194,11.123-4.485c1.07,1.351,2.452,3.023,3.709,4.485c0.868,1.003,1.713,1.904,2.242,2.673
		c0,0,10.161,13.745,11.297,14.832c1.11,0.907,2.675,1.466,4.742,1.466c2.416,0,4.395-0.802,5.865-2.157
		c1.483-1.526,2.24-3.588,2.24-6.208c0-0.952-0.298-1.882-0.862-2.932l-5.777-7.674l-11.469-15.437
		c-2.682-3.764-1.792-7.336,1.119-10.519c1.668-1.884,8.348-8.841,9.659-10.435c2.855-3.391,2.362-7.124-0.257-9.743
		c-2.723-2.628-7.535-2.716-10.781,0.431c-1.805,1.809-7.342,7.526-12.676,12.761c-3.035,3.025-10.521,3.404-10.521-3.276v-25.784
		c0-8.36-4.036-10.262-7.846-10.262C430.667,201.788,430.106,201.732,429.6,201.788L429.6,201.788z M51.728,203.168
		c-5.202,0-9.313,2.122-9.313,7.674c0,2.969,1.681,7.589,7.76,7.589h5.175c12.284,0,15.435,5.629,15.435,20.093l1.034,43.633
		c0,3.672,1.193,6.877,2.587,8.279c1.758,1.681,3.217,2.587,6.208,2.587c3.025,0,4.525-0.907,6.295-2.587
		c1.395-1.402,2.587-4.607,2.587-8.279l0.949-43.633c0-14.463,3.086-20.093,15.349-20.093h5.346c6.002,0,7.675-4.62,7.675-7.589
		c0-5.552-4.095-7.674-9.227-7.674H51.727H51.728z M266.361,203.168c-5.208,0-9.4,2.12-9.4,7.674c0,2.969,1.678,7.503,7.76,7.503
		h5.175c12.373,0,15.522,5.715,15.522,20.178l0.776,35.527l0.174,8.105c0,3.672,1.188,6.881,2.585,8.279
		c1.784,1.681,3.258,2.587,6.208,2.587c3.036,0,4.513-0.907,6.296-2.587c1.404-1.398,2.587-4.607,2.587-8.279l0.171-8.105
		l0.776-35.527c0-14.463,3.181-20.178,15.349-20.178h5.346c6.088,0,7.762-4.534,7.762-7.503c0-5.554-4.101-7.674-9.314-7.674
		H266.361L266.361,203.168z M136.581,224.984c-6.534-0.114-12.348,0.752-18.281,3.19c-4.453,1.794-10.418,6.206-11.469,10.35
		c-0.465,1.829-0.458,3.469,1.379,5.432c1.422,1.559,3.706,2.437,4.83,2.587c2.408,0.322,4.995-0.013,7.243-2.242
		c2.745-2.817,4.426-4.176,6.381-4.916c1.53-0.577,3.645-1.488,7.416-1.552c5.015-0.084,8.359,0.857,10.175,3.276
		c2.052,2.729,1.472,7.34,1.035,8.365c-0.701,1.531-2.246,1.601-9.399,2.587c-3.425,0.472-10.598,1.186-17.161,3.104
		c-4.989,1.451-9.144,4.268-11.209,6.727c-2.742,3.4-3.795,6.783-3.881,11.383c-0.049,3.293,0.902,8.289,2.76,11.124
		c5.49,8.317,13.351,8.562,16.728,8.624c11.385,0.199,18.699-4.38,21.559-6.296c1.883-1.282,3.777-0.982,4.656,0.086
		c2.345,2.849,2.551,3.395,3.967,4.57c2.437,1.831,5.621,2.907,10.089,0.088c3.549-2.364,4.92-6.433,1.725-12.073
		c-2.127-3.792-2.501-5.717-2.501-9.141c0-3.389,0.107-15.13,0.087-19.143c-0.038-6.403-0.322-11.047-1.984-14.746
		c-1.641-3.833-5.102-7.177-9.313-8.969C146.616,225.426,140.502,225.059,136.581,224.984L136.581,224.984z M351.214,224.984
		c-6.598-0.114-12.255,0.757-18.281,3.19c-4.446,1.794-10.498,6.206-11.554,10.35c-0.467,1.829-0.394,3.469,1.464,5.432
		c1.426,1.554,3.811,2.437,4.916,2.587c2.426,0.322,4.922-0.013,7.158-2.242c2.81-2.817,4.553-4.176,6.296-4.916
		c1.556-0.577,3.719-1.486,7.501-1.552c5.104-0.084,8.414,0.857,10.262,3.276c2.071,2.729,1.481,7.34,1.033,8.365
		c-0.699,1.531-2.324,1.601-9.484,2.587c-3.507,0.472-10.427,1.186-17.074,3.104c-5.005,1.451-9.316,4.268-11.383,6.727
		c-2.746,3.4-3.814,6.778-3.88,11.383c-0.011,0.253-0.009,0.51,0,0.776c0.081,3.26,1.125,7.724,2.845,10.348
		c5.584,8.322,13.439,8.56,16.901,8.624c11.261,0.195,18.629-4.38,21.473-6.296c1.923-1.282,3.784-0.986,4.658,0.086
		c2.156,2.849,2.463,3.395,3.88,4.57c2.431,1.826,5.561,2.907,10.088,0.088c3.55-2.36,4.913-6.433,1.724-12.073
		c-1.244-2.232-1.852-3.721-2.155-5.346c-0.212-1.145-0.259-2.38-0.259-3.794c0-3.389,0.116-15.126,0.086-19.143
		c-0.034-6.399-0.317-11.044-1.983-14.746c-1.694-3.833-5.289-7.175-9.486-8.969C361.287,225.43,355.163,225.059,351.214,224.984
		L351.214,224.984z M139.513,263.703c1.241-0.036,2.146,0.024,2.845,0.086c1.762,0.146,2.761,1.113,3.018,2.932
		c0.244,1.719,0.048,4.202-1.034,5.863c-1.309,1.897-2.589,3.207-5.692,4.399c-5.816,2.287-10.592,2.628-13.366,1.033
		c-1.577-0.9-2.506-2.457-2.846-4.57c-0.554-3.466,0.968-5.314,1.983-6.122c2.091-1.648,5.081-2.551,10.176-3.19
		c2.129-0.27,3.673-0.394,4.914-0.431H139.513z M354.232,263.703c1.248-0.036,2.144,0.024,2.845,0.086
		c1.751,0.141,2.755,1.108,3.018,2.932c0.238,1.715,0.049,4.197-1.035,5.863c-0.371,0.519-0.725,1.012-1.121,1.466
		c-1.061,1.173-2.33,2.062-4.57,2.932c-5.918,2.287-10.772,2.628-13.366,1.033c-1.432-0.804-2.328-2.139-2.759-3.966
		c-0.041-0.176-0.049-0.433-0.088-0.605c-0.579-3.466,1.055-5.314,2.071-6.122c1.923-1.644,4.881-2.553,10.002-3.19
		C351.381,263.864,352.983,263.74,354.232,263.703z"/>
</g>
</svg>
