<svg version="1.1" xmlns="http://www.w3.org/2000/svg" xmlns:xlink="http://www.w3.org/1999/xlink" x="0px" y="0px"
	 viewBox="0 0 512 512" style="enable-background:new 0 0 512 512;" xml:space="preserve">
<title>Viacom</title>
<g id="Viacom">
	<path d="M333.292,224.907c22.716,0,38.832,12.402,38.832,35.4c0,22.006-14.961,35.414-38.832,35.414
		c-23.323,0-38.858-12.841-38.858-35.414C294.434,238.036,309.794,224.907,333.292,224.907z M333.292,281.093
		c12.143,0,19.274-8.338,19.274-20.786c0-13.074-7.546-20.783-19.274-20.783c-12.36,0-19.35,8.328-19.35,20.783
		C313.943,272.232,320.716,281.093,333.292,281.093z M187.879,225.755c-2.286,0-38.192,0-38.192,0s0,2.71,0,5.332
		c0,4.654,2.485,9.209,9.068,9.209c2.934,0,24.387,0.017,24.387,0.017c10.181,0,13.814,3.291,13.814,11.449v1.159h-25.808
		c-19.142,0-26.207,8.869-26.207,20.939c0,14.596,9.791,21.02,26.265,21.02l0,0c0,0,10.647,0,17.163,0
		c22.467,0,27.263-11.229,27.263-26.081v-17.175C215.631,235.659,209.705,225.755,187.879,225.755z M196.955,268.965
		c0,6.974-3.242,12.31-12.551,12.31h-9.725c-6.757,0-10.813-1.804-10.813-7.372c0-5.312,3.74-7.38,10.813-7.38h22.276V268.965z
		 M269.4,240.247c0,0,9.449,0,9.483,0c6.773,0,10.814-2.44,10.814-8.661v-5.831h-27.005l0,0c-22.625,0-33.455,13.311-33.455,34.552
		c0,26.512,16.507,34.574,33.455,34.574h27.005v-5.892c0-6.135-4.223-8.611-10.349-8.611c-2.893,0-9.948,0-9.948,0
		c-10.781,0-20.738-3.857-20.738-20.071C248.662,246.23,256.209,240.247,269.4,240.247z M65.331,275.981
		c0,0-16.066-41.948-16.973-44.367c-1.23-3.304-2.917-5.86-9.01-5.86H25.485l28.492,69.126h20.721l29.407-69.126
		c0,0-8.802,0-12.168,0c-5.261,0-7.273,2.252-8.587,5.536l-17.729,44.69H65.331z M434.986,275.358c0,0-11.804-33.648-13.972-40.011
		c-1.463-4.273-3.466-9.592-13.075-9.592c-1.222,0-21.976,0-21.976,0v69.126h7.454c5.619,0,9.194-2.51,9.194-8.302v-48.322h0.298
		l21.32,56.625h19.963l21.329-56.625h0.307c0,0,0,48.348,0,48.363c0,4.904,2.643,8.262,9.226,8.262h9.218v-69.126
		c0,0-16.806,0-20.597,0c-7.298,0-11.777,1.995-13.995,8.495c-1.446,4.231-14.371,41.108-14.371,41.108H434.986z M112.699,225.755
		v60.997c0,4.747,2.826,8.129,8.96,8.129h9.708v-69.126H112.699z"/>
</g>
</svg>
