<svg version="1.1" xmlns="http://www.w3.org/2000/svg" xmlns:xlink="http://www.w3.org/1999/xlink" x="0px" y="0px"
	 viewBox="0 0 512 512" style="enable-background:new 0 0 512 512;" xml:space="preserve">
<title>Yale</title>
<g id="Yale">
	<path d="M192.038,199.536l-38.032,63.262v42.566c4.381,10.241,15.444,11.603,26.048,12.055v5.921h-74.445v-5.917
		c10.597-0.455,23.505-2.048,26.965-8.876v-43.92L93.85,199.987c-6.675-10.928-13.132-14.569-26.041-15.476v-5.921h64.766v5.921
		c-12.215,0.676-16.134,2.959-19.594,5.69l35.958,61.448l35.265-61.217c-3.688-2.738-8.527-5.242-20.746-5.921v-5.921h55.317v5.921
		c-12.446,0.455-20.284,4.552-26.741,15.021L192.038,199.536z M267.639,325.394c-12.446,0-18.442-8.421-18.904-14.338
		c-7.841,8.197-17.979,14.341-27.659,14.341c-12.446,0-23.05-7.51-23.05-20.483c0-6.372,1.614-12.979,4.836-18.207l45.873-16.393
		V253.48c0-10.241-4.843-20.028-15.213-20.028c-6.223,0-12.218,7.503-12.677,19.117l-20.746,3.414v-2.276
		c6.916-20.483,29.735-28.448,40.795-28.448c20.981,0,28.58,10.917,28.352,27.765l-0.693,47.793
		c-0.228,9.335,4.836,11.61,9.452,11.61c3.691,0,7.379-2.276,11.756-6.6v6.596c-5.067,5.917-14.057,12.972-22.126,12.972
		L267.639,325.394z M221.536,288.294c-0.917,3.641-1.607,6.828-1.607,11.842c0,6.828,3.919,13.655,11.521,13.655
		c6.916,0,10.835-2.276,17.058-7.059l0.228-30.724c-5.995,2.727-20.746,9.103-27.204,12.29L221.536,288.294z M291.838,323.349
		v-5.234c10.369-0.683,13.371-2.959,15.213-6.828V193.384c0-7.738-1.156-10.924-17.058-12.29v-4.552l42.185-10.469l1.38,3.876
		l-6.678,8.19v133.137c2.304,4.559,6.685,6.152,16.134,6.835v5.234h-51.175V323.349z M398.32,325.17
		c-24.199,0-42.871-18.893-42.871-45.297c0-32.317,20.056-54.396,48.405-54.396c22.815,0,35.489,12.748,35.489,33v4.1l-62.23-0.455
		c-0.455,2.503-0.69,6.604-0.69,11.607c0,23.221,14.758,38.465,34.351,38.465c11.749,0,17.745-4.089,26.955-11.831l3.464,5.227
		C428.052,317.432,417.224,325.17,398.32,325.17z M400.396,232.535c-11.522,0-19.594,9.103-22.357,23.434l40.574-0.448
		c0-12.062-7.61-22.986-18.214-22.986H400.396z"/>
</g>
</svg>
