<?xml version="1.0" encoding="UTF-8" standalone="no"?>
<svg width="16px" height="16px" viewBox="0 0 16 16" version="1.1" xmlns="http://www.w3.org/2000/svg" xmlns:xlink="http://www.w3.org/1999/xlink">
    <g>
        <path d="M16,8 C16,3.50769231 12.4892086,0 8,0 C3.53956835,0 0,3.50769231 0,8 C0,12.4615385 3.53956835,16 8,16 C12.4892086,16 16,12.4615385 16,8 Z" fill="#215CFF"></path>
        <path d="M14,8 C14,4.63076923 11.3669065,2 8,2 C4.65467626,2 2,4.63076923 2,8 C2,11.3461538 4.65467626,14 8,14 C11.3669065,14 14,11.3461538 14,8 Z" fill="#FFFFFF"></path>
        <path d="M12,8 C12,5.75384615 10.2446043,4 8,4 C5.76978417,4 4,5.75384615 4,8 C4,10.2307692 5.76978417,12 8,12 C10.2446043,12 12,10.2307692 12,8 Z" fill="#215CFF"></path>
    </g>
</svg>